<?xml version="1.0" encoding="UTF-8" standalone="no"?>
<!-- Created with Inkscape (http://www.inkscape.org/) -->

<svg
   width="512"
   height="512"
   viewBox="0 0 512 512"
   version="1.1"
   id="SVGRoot"
   xml:space="preserve"
   xmlns="http://www.w3.org/2000/svg"
   xmlns:svg="http://www.w3.org/2000/svg"><defs
     id="defs948" /><g
     id="layer1"><path
       style="fill:#44aa00"
       d="m 311.34208,465.20299 40.72788,-42.53802 31.67725,3.62026 56.11398,-29.86712 20.81648,7.24051 24.43673,-16.29115 1.81013,-20.81648 16.29115,-14.48103 -4.52532,-16.29115 4.52532,-24.43673 -47.9684,-38.0127 -15.38609,-25.3418 -14.48103,-15.38609 -49.77853,-38.91776 -1.81013,-15.38609 -26.24686,-22.6266 -250.702773,190.06347 z"
       id="path1484" /><circle
       style="fill:#008000"
       id="path1084"
       cx="275.1395"
       cy="136.66469"
       r="81.455772" /><circle
       style="fill:#55d400"
       id="path1030"
       cx="166.5318"
       cy="210.87994"
       r="161.10143" /><path
       style="fill:#44aa00"
       d="m 333.96868,182.82296 c 0,0 -46.35647,-26.25361 -120.37354,26.24687 -77.83551,55.20891 -47.54359,120.82672 33.48738,85.07603 82.79285,-36.52803 65.16462,15.38609 65.16462,15.38609 l 45.72353,-12.36661 17.35392,-93.41824 z"
       id="path1493" /><ellipse
       style="fill:#44aa00"
       id="path1591"
       cx="184.63309"
       cy="226.71857"
       rx="73.310196"
       ry="79.193115" /></g></svg>
